<svg xmlns="http://www.w3.org/2000/svg" width="264.246" height="186.793" viewBox="0 0 264.246 186.793">
  <g id="Group_11625" data-name="Group 11625" transform="translate(0 0)">
    <path id="Path_10506" data-name="Path 10506" d="M516.9,390.36a12.819,12.819,0,0,1-1.186-.988l.514-.546a12.1,12.1,0,0,0,1.117.93Z" transform="translate(-404.643 -310.709)" fill="#e4e4e4"/>
    <path id="Path_10507" data-name="Path 10507" d="M501.732,326.2a12.631,12.631,0,0,1-1.347-2.96l.716-.22a11.887,11.887,0,0,0,1.267,2.784Zm-1.9-6.164q-.011-.266-.011-.532a12.66,12.66,0,0,1,.293-2.707l.732.16a11.912,11.912,0,0,0-.275,2.547q0,.25.01.5Zm2.05-5.956-.666-.343a12.779,12.779,0,0,1,1.066-1.72,10.353,10.353,0,0,1,.795-.954l.546.513a9.624,9.624,0,0,0-.737.885,12.032,12.032,0,0,0-1,1.619Zm4.145-4.347-.354-.661a10.2,10.2,0,0,1,3.093-1.062l.127.738a9.448,9.448,0,0,0-2.866.984Zm8.778-.082a9.363,9.363,0,0,0-2.882-.932l.113-.741a10.112,10.112,0,0,1,3.112,1.007Z" transform="translate(-392.721 -250.053)" fill="#e4e4e4"/>
    <path id="Path_10508" data-name="Path 10508" d="M570.347,321.6a7.455,7.455,0,0,0-.848-1.145l.557-.5a8.194,8.194,0,0,1,.933,1.26Z" transform="translate(-444.994 -259.041)" fill="#e4e4e4"/>
    <path id="Path_10509" data-name="Path 10509" d="M456.073,289.7l-.6-.444c.3-.408.616-.811.939-1.2l.575.48C456.67,288.916,456.364,289.307,456.073,289.7Z" transform="translate(-359.444 -235.11)" fill="#e4e4e4"/>
    <path id="Path_10510" data-name="Path 10510" d="M502.337,262.625a18.745,18.745,0,0,0-1.907-2.25l.532-.528a19.491,19.491,0,0,1,1.984,2.341Zm-34.174-2.447-.51-.549a24.28,24.28,0,0,1,2.366-1.938l.437.609a23.538,23.538,0,0,0-2.293,1.878Zm30.029-1.728a23.945,23.945,0,0,0-2.493-1.6l.365-.654a24.681,24.681,0,0,1,2.571,1.653Zm-25.226-1.723-.357-.659a24.4,24.4,0,0,1,2.774-1.284l.271.7a23.663,23.663,0,0,0-2.689,1.245Zm20.061-1.157a23.506,23.506,0,0,0-2.812-.93l.19-.725a24.276,24.276,0,0,1,2.9.96Zm-14.548-.986-.182-.727a24.612,24.612,0,0,1,3.006-.556l.09.744a23.857,23.857,0,0,0-2.914.539Zm8.828-.512a23.713,23.713,0,0,0-2.956-.2l0-.749a24.485,24.485,0,0,1,3.05.205Z" transform="translate(-368.585 -208.899)" fill="#e4e4e4"/>
    <path id="Path_10511" data-name="Path 10511" d="M613.262,301.611c-.184-.452-.389-.9-.608-1.337l.67-.337c.227.453.44.92.632,1.39Z" transform="translate(-477.371 -244.021)" fill="#e4e4e4"/>
    <path id="Path_10512" data-name="Path 10512" d="M622.536,479.2l-.257-.7c.462-.169.927-.35,1.383-.537l.285.693C623.481,478.847,623.007,479.032,622.536,479.2Z" transform="translate(-484.591 -377.582)" fill="#e4e4e4"/>
    <path id="Path_10513" data-name="Path 10513" d="M508.671,470.709l-.027-.749c.972-.035,1.955-.11,2.921-.221l.086.744C510.665,470.6,509.663,470.672,508.671,470.709Zm-2.988-.009c-.993-.042-1.995-.124-2.978-.244l.091-.744c.964.117,1.946.2,2.919.239Zm8.919-.676-.144-.735c.954-.187,1.913-.414,2.85-.675l.2.722c-.956.266-1.934.5-2.907.689Zm-14.846-.047c-.973-.2-1.949-.437-2.9-.711l.207-.72c.934.269,1.891.5,2.844.7Zm-5.739-1.65c-.929-.349-1.855-.74-2.753-1.162l.319-.678c.88.413,1.788.8,2.7,1.139Zm-5.4-2.538c-.859-.49-1.712-1.022-2.535-1.581l.421-.62c.807.548,1.643,1.069,2.485,1.549Z" transform="translate(-382.408 -366.798)" fill="#e4e4e4"/>
    <path id="Path_10514" data-name="Path 10514" d="M472.971,454.273c-.391-.319-.778-.652-1.151-.988l.5-.556c.364.328.742.653,1.123.964Z" transform="translate(-371.711 -358.651)" fill="#e4e4e4"/>
    <path id="Path_10515" data-name="Path 10515" d="M392.224,152.219l-.385-.643c.43-.258.869-.513,1.3-.758l.368.652C393.082,151.713,392.649,151.965,392.224,152.219Z" transform="translate(-311.706 -132.145)" fill="#e4e4e4"/>
    <path id="Path_10516" data-name="Path 10516" d="M476.274,139.581c-.642-.748-1.318-1.486-2.008-2.192l.536-.524c.7.718,1.388,1.468,2.041,2.228Zm-4.153-4.251c-.732-.659-1.5-1.3-2.272-1.918l.465-.588c.788.624,1.564,1.279,2.308,1.949Zm-4.66-3.694c-.81-.569-1.644-1.124-2.478-1.649l.4-.634c.845.532,1.689,1.093,2.51,1.67Zm-5.037-3.169c-.861-.483-1.747-.95-2.633-1.388l.332-.671c.9.444,1.794.917,2.667,1.406ZM408.062,127.2l-.334-.67c.9-.447,1.816-.876,2.734-1.276l.3.687c-.906.4-1.814.819-2.7,1.26Zm49.028-1.375c-.907-.392-1.836-.766-2.762-1.11l.261-.7c.938.349,1.879.727,2.8,1.125Zm-43.57-1-.264-.7c.936-.352,1.894-.685,2.85-.99l.228.714c-.943.3-1.89.63-2.813.977Zm37.993-1.073c-.942-.3-1.9-.572-2.862-.82l.188-.725c.969.251,1.945.53,2.9.831Zm-32.32-.737-.191-.725c.967-.255,1.954-.488,2.935-.694l.154.733c-.969.2-1.944.434-2.9.686Zm26.558-.755c-.967-.2-1.953-.373-2.931-.522l.112-.741c.991.15,1.99.328,2.969.528Zm-20.73-.468-.116-.74c.988-.155,1.994-.287,2.991-.392l.079.745c-.984.1-1.978.234-2.953.388Zm14.845-.424c-.982-.1-1.982-.171-2.969-.219l.036-.748c1,.048,2.013.122,3.008.221Zm-8.923-.2-.041-.748c1-.054,2.015-.083,3.015-.086l0,.749c-.988,0-1.989.032-2.977.085Z" transform="translate(-323.627 -109.274)" fill="#e4e4e4"/>
    <path id="Path_10517" data-name="Path 10517" d="M690.555,206.586c-.284-.4-.578-.809-.873-1.2l.6-.45c.3.4.6.811.888,1.222Z" transform="translate(-535.159 -172.745)" fill="#e4e4e4"/>
    <path id="Path_10518" data-name="Path 10518" d="M552.092,693.851q-.746-.1-1.49-.2l.108-.741q.738.107,1.478.2Z" transform="translate(-430.816 -538.841)" fill="#e4e4e4"/>
    <path id="Path_10519" data-name="Path 10519" d="M376.123,595.221c-1-.18-2.017-.38-3.014-.594l.157-.733c.989.212,1.994.41,2.989.589Zm-6.005-1.288c-.991-.248-1.989-.515-2.967-.795l.206-.72c.97.277,1.96.543,2.942.788Zm-5.9-1.689c-.972-.314-1.949-.648-2.906-.993l.254-.7c.949.342,1.919.674,2.882.985Zm-5.777-2.083c-.946-.377-1.9-.776-2.833-1.186l.3-.686c.926.406,1.872.8,2.81,1.176Zm-5.624-2.467c-.919-.441-1.843-.9-2.746-1.374l.346-.664c.9.467,1.812.925,2.724,1.362Zm-5.445-2.839c-.884-.5-1.775-1.022-2.648-1.554l.39-.64c.866.528,1.75,1.046,2.627,1.541Zm-5.244-3.2c-.852-.559-1.706-1.139-2.54-1.726l.431-.613c.827.582,1.674,1.158,2.519,1.712Zm-5.022-3.538c-.815-.618-1.626-1.261-2.41-1.909l.477-.578c.777.642,1.58,1.278,2.386,1.89Zm-4.74-3.916c-.759-.682-1.514-1.39-2.244-2.1l.524-.536c.722.705,1.469,1.406,2.221,2.081Zm-4.4-4.3c-.7-.743-1.393-1.511-2.06-2.283l.567-.49c.66.764,1.346,1.524,2.039,2.26Zm-4.022-4.651c-.635-.8-1.261-1.624-1.861-2.448l.606-.441c.594.816,1.213,1.632,1.842,2.423Z" transform="translate(-259.37 -440.907)" fill="#e4e4e4"/>
    <path id="Path_10520" data-name="Path 10520" d="M312.55,548.973q-.417-.628-.82-1.263l.632-.4q.4.628.812,1.25Z" transform="translate(-251.605 -429.609)" fill="#e4e4e4"/>
    <path id="Path_10521" data-name="Path 10521" d="M845.1,134.887l-9.339,8.6,7.422-12.453c-5.847-10.6-15.411-19.768-15.411-19.768s-19.841,19.009-19.841,33.951,8.883,20.16,19.841,20.16,19.84-5.217,19.84-20.16A26.206,26.206,0,0,0,845.1,134.887Z" transform="translate(-623.872 -102.469)" fill="#b2b2b2"/>
    <path id="Path_10522" data-name="Path 10522" d="M892.617,141.46v.737c-.044,8.561-1.488,15.241-4.321,19.945-.04.069-.084.135-.124.2l-.317-.193-.3-.19c3.143-5.079,4.255-12.258,4.3-19.726,0-.241.007-.485,0-.729-.011-3.161-.2-6.359-.514-9.465-.022-.241-.047-.485-.073-.729-.43-4.1-1.05-8.014-1.685-11.416-.044-.241-.091-.481-.139-.718-1.1-5.754-2.217-9.921-2.472-10.844-.029-.113-.047-.175-.051-.19l.346-.1,0,0,.35-.1c0,.015.066.222.168.609.39,1.444,1.4,5.364,2.4,10.534.044.233.091.474.135.715.518,2.76,1.025,5.845,1.426,9.083q.153,1.22.273,2.406c.029.244.055.489.077.729Q892.6,137.058,892.617,141.46Z" transform="translate(-683.134 -99.98)" fill="#fff"/>
    <path id="Path_10523" data-name="Path 10523" d="M864.787,147.411c-.244.033-.492.066-.744.091a20.107,20.107,0,0,1-2.056.106,19.566,19.566,0,0,1-8.459-1.911l-.463.583a20.291,20.291,0,0,0,8.922,2.056,20.811,20.811,0,0,0,2.195-.117c.248-.026.5-.058.74-.095a20.12,20.12,0,0,0,5.816-1.761q-.235-.3-.459-.591A19.5,19.5,0,0,1,864.787,147.411Z" transform="translate(-657.736 -128.304)" fill="#fff"/>
    <path id="Path_10524" data-name="Path 10524" d="M854.573,176.163q-.377.022-.755.022c-.077,0-.157,0-.233,0a19.671,19.671,0,0,1-16.145-8.434c-.146.215-.292.43-.434.649a20.4,20.4,0,0,0,16.579,8.514c.1,0,.2,0,.306,0,.255,0,.507-.011.758-.022A20.293,20.293,0,0,0,865.46,173.1c-.117-.215-.233-.43-.354-.645A19.536,19.536,0,0,1,854.573,176.163Z" transform="translate(-645.688 -144.852)" fill="#fff"/>
    <path id="Path_10525" data-name="Path 10525" d="M846.715,199.706c-.255.022-.51.036-.766.047-.273.011-.547.018-.82.018a19.724,19.724,0,0,1-18.909-14.191c-.164.3-.328.587-.485.882A20.446,20.446,0,0,0,845.129,200.5c.273,0,.547,0,.817-.018s.514-.022.769-.04a20.386,20.386,0,0,0,13.454-6.567c-.077-.27-.164-.536-.252-.806A19.66,19.66,0,0,1,846.715,199.706Z" transform="translate(-637.233 -158.226)" fill="#fff"/>
    <path id="Path_10526" data-name="Path 10526" d="M109.955,228.133l6.091,11.137-10.3-10.207c-11.7,3.117-22.9,10.188-22.9,10.188s13.662,23.84,28.163,27.444,21.707-3.758,24.35-14.392-.278-20.513-14.779-24.117A26.21,26.21,0,0,0,109.955,228.133Z" transform="translate(-79.89 -189.763)" fill="#b2b2b2"/>
    <path id="Path_10527" data-name="Path 10527" d="M113.929,274.237l.715.178c8.3,2.107,14.432,5.12,18.313,9,.058.056.111.114.168.17l-.264.261-.257.248c-4.171-4.275-10.87-7.086-18.107-8.926-.233-.062-.469-.124-.707-.179-3.071-.752-6.22-1.336-9.31-1.784-.239-.037-.482-.071-.725-.105-4.081-.571-8.031-.914-11.485-1.119-.244-.016-.489-.028-.731-.039-5.848-.323-10.163-.242-11.12-.216-.117,0-.181,0-.2,0l-.012-.36,0,0L80.2,271c.015,0,.232-.01.631-.016,1.5-.03,5.544-.069,10.8.212.237.014.482.026.726.041,2.8.163,5.919.415,9.158.807q1.221.146,2.4.315c.244.031.487.065.726.1Q109.652,273.192,113.929,274.237Z" transform="translate(-77.9 -222.286)" fill="#fff"/>
    <path id="Path_10528" data-name="Path 10528" d="M112.819,253.8c-.027.245-.055.494-.091.744a20.114,20.114,0,0,1-.393,2.021,19.567,19.567,0,0,1-3.895,7.749l.454.59a20.291,20.291,0,0,0,4.148-8.163,20.813,20.813,0,0,0,.416-2.158c.035-.247.063-.5.087-.741a20.12,20.12,0,0,0-.306-6.069l-.684.3A19.5,19.5,0,0,1,112.819,253.8Z" transform="translate(-99.089 -204.882)" fill="#fff"/>
    <path id="Path_10529" data-name="Path 10529" d="M138.238,242.6q-.07.372-.161.738c-.015.075-.034.153-.053.227A19.67,19.67,0,0,1,125.946,257.2c.174.193.347.387.525.578a20.4,20.4,0,0,0,12.261-14.036c.025-.1.049-.2.07-.3.058-.249.112-.494.162-.741a20.293,20.293,0,0,0-1.072-11.406c-.237.061-.474.123-.712.188a19.535,19.535,0,0,1,1.058,11.117Z" transform="translate(-112.223 -192.525)" fill="#fff"/>
    <path id="Path_10530" data-name="Path 10530" d="M159.227,240.612c-.04.253-.088.5-.139.755-.055.268-.114.535-.18.8A19.724,19.724,0,0,1,140.575,257.1c.247.23.491.46.739.683a20.446,20.446,0,0,0,18.3-15.435c.066-.265.128-.532.179-.8s.1-.5.147-.756a20.386,20.386,0,0,0-3.128-14.641c-.28.009-.56.03-.843.05A19.66,19.66,0,0,1,159.227,240.612Z" transform="translate(-123.198 -188.661)" fill="#fff"/>
    <path id="Path_10531" data-name="Path 10531" d="M252.824,461.3l-2.282-2.324,2.8-4.279,4.79-7.972a1.864,1.864,0,1,1,2.277,1l-3.953,8.511Z" transform="translate(-205.699 -352.168)" fill="#a0616a"/>
    <path id="Path_10532" data-name="Path 10532" d="M235.55,508.651a2.572,2.572,0,0,1-2.538,1.149,2.4,2.4,0,0,1-2.02-1.694,2.293,2.293,0,0,1,.253-1.914,59.42,59.42,0,0,1,4.371-6.007l.045-.054,4.749,1.029Z" transform="translate(-190.954 -394.214)" fill="#a91e1c"/>
    <path id="Path_10533" data-name="Path 10533" d="M244.585,97.726l-.559.172-4.711-15.3a9.266,9.266,0,0,0-11.582-6.129h0l-32.417,9.981a9.266,9.266,0,0,0-6.129,11.582h0l25.844,83.943a9.266,9.266,0,0,0,11.582,6.129h0l32.417-9.981a9.266,9.266,0,0,0,6.129-11.582h0l-17.78-57.75.559-.172Z" transform="translate(-159.359 -76.055)" fill="#3f3d56"/>
    <path id="Path_10534" data-name="Path 10534" d="M236.511,85.566l-4.232,1.3a3.288,3.288,0,0,1-1.576,5.224l-18.571,5.718a3.288,3.288,0,0,1-4.242-3.433l-3.952,1.217a6.92,6.92,0,0,0-4.577,8.65l25.806,83.82a6.92,6.92,0,0,0,8.65,4.577h0l32.573-10.029a6.92,6.92,0,0,0,4.577-8.65h0l-25.806-83.82A6.92,6.92,0,0,0,236.511,85.566Z" transform="translate(-167.07 -82.959)" fill="#fff"/>
    <path id="Path_10535" data-name="Path 10535" d="M631.353,363.694l-76.045-27.335a7.232,7.232,0,0,1-4.355-9.242L590.6,216.833a7.232,7.232,0,0,1,9.242-4.355l76.045,27.335a7.232,7.232,0,0,1,4.355,9.242L640.6,359.339A7.233,7.233,0,0,1,631.353,363.694Z" transform="translate(-430.761 -178.086)" fill="#3f3d56"/>
    <path id="Path_10536" data-name="Path 10536" d="M647.26,373.174l-76.313-27.432a2.23,2.23,0,0,1-1.342-2.849L609.51,231.88a2.23,2.23,0,0,1,2.849-1.342l76.313,27.432a2.229,2.229,0,0,1,1.342,2.849L650.109,371.831A2.229,2.229,0,0,1,647.26,373.174Z" transform="translate(-444.974 -191.855)" fill="#fff"/>
    <circle id="Ellipse_776" data-name="Ellipse 776" cx="0.615" cy="0.615" r="0.615" transform="translate(205.448 49.424)" fill="#fff"/>
    <path id="Path_10561" data-name="Path 10561" d="M16.6,0A16.6,16.6,0,1,1,0,16.6,16.6,16.6,0,0,1,16.6,0Z" transform="translate(44.536 55.103) rotate(-45)" fill="#a91e1c"/>
    <path id="Path_10537" data-name="Path 10537" d="M254.57,200.091l-8.215-5.573.717-1.057,6.8,4.614,4.915-15.376,1.216.389Z" transform="translate(-184.825 -137.068)" fill="#fff"/>
    <circle id="Ellipse_778" data-name="Ellipse 778" cx="21.02" cy="21.02" r="21.02" transform="translate(155.168 108.551) rotate(-45)" fill="#a91e1c"/>
    <path id="Path_10538" data-name="Path 10538" d="M710.922,431.906,707.9,419.7l1.57-.388,2.5,10.1,17.65-10.321.816,1.4Z" transform="translate(-531.097 -314.423)" fill="#fff"/>
    <path id="Path_10539" data-name="Path 10539" d="M193.974,653.36h2.838l1.35-10.945h-4.188Z" transform="translate(-145.527 -481.965)" fill="#a0616a"/>
    <path id="Path_10540" data-name="Path 10540" d="M262.078,758.584h5.589a3.562,3.562,0,0,1,3.561,3.561v.116h-9.15Z" transform="translate(-214.354 -588.116)" fill="#2f2e41"/>
    <path id="Path_10541" data-name="Path 10541" d="M105.51,648.812l2.806.424,2.971-10.621-3.678-.626Z" transform="translate(-79.158 -478.646)" fill="#a0616a"/>
    <path id="Path_10542" data-name="Path 10542" d="M172.548,753.275l5.526.835h0a3.562,3.562,0,0,1,2.989,4.054l-.017.114L172,756.911Z" transform="translate(-146.773 -584.133)" fill="#2f2e41"/>
    <path id="Path_10543" data-name="Path 10543" d="M190.17,551.382l6.6-1.437,3.7,10.58.116,40.853-5.387-.034-2.252-33.065L178.6,598.832l-5.787-.694,12.615-32.752s-.694-5.787,1.5-8.68l-.463-3.009Z" transform="translate(-147.382 -431.586)" fill="#2e2e2e"/>
    <path id="Path_10544" data-name="Path 10544" d="M217.135,509.638a2.452,2.452,0,0,1,.676-2.588l1.395-1.268,3.932-.663,2.459-.447,5.83,14.554-11.476,1.307c-.842-.182-1.179-.643-.689-1.559Z" transform="translate(-180.542 -397.621)" fill="#a91e1c"/>
    <path id="Path_10545" data-name="Path 10545" d="M272.161,486.473l-.328-3.241,4.859-1.59,8.722-3.228a1.864,1.864,0,1,1,1.153,2.2l-8.407,4.171Z" transform="translate(-221.672 -376.866)" fill="#a0616a"/>
    <path id="Path_10546" data-name="Path 10546" d="M241.783,505.387a2.572,2.572,0,0,1-2.7-.69,2.406,2.406,0,0,1-.518-2.585,2.293,2.293,0,0,1,1.394-1.336,59.444,59.444,0,0,1,7.167-1.955l.069-.014,3.063,3.772Z" transform="translate(-196.585 -393.221)" fill="#a91e1c"/>
    <circle id="Ellipse_779" data-name="Ellipse 779" cx="4.317" cy="4.317" r="4.317" transform="translate(36.554 97.472)" fill="#a0616a"/>
    <path id="Path_10547" data-name="Path 10547" d="M211.95,473.941a16.531,16.531,0,0,1-2-.122l-.094-.012-.7-3.775a6.368,6.368,0,0,1,4.759-7.342.592.592,0,0,1,.589.182l.166-.058a5.12,5.12,0,0,1,6.52,3.149l.041.118-1.107.386a2.457,2.457,0,0,0-1.3,3.585l1.131,1.884-.12.06A17.489,17.489,0,0,1,211.95,473.941Z" transform="translate(-174.574 -366.003)" fill="#2e2e2e"/>
    <path id="Path_10548" data-name="Path 10548" d="M166.408,773.445H71.25a.25.25,0,0,1,0-.5h95.159a.25.25,0,0,1,0,.5Z" transform="translate(-71 -598.89)" fill="#cacaca"/>
    <path id="Path_10549" data-name="Path 10549" d="M841.408,822.445H746.25a.25.25,0,0,1,0-.5h95.159a.25.25,0,1,1,0,.5Z" transform="translate(-577.412 -635.652)" fill="#cacaca"/>
    <path id="Path_10550" data-name="Path 10550" d="M904.869,566.753a1.883,1.883,0,0,0,0-2.887l-1.4-24.632-3.993.9,2.64,24.056a1.893,1.893,0,0,0,2.753,2.559Z" transform="translate(-692.556 -423.551)" fill="#9f616a"/>
    <path id="Path_10551" data-name="Path 10551" d="M983.81,579.5a1.883,1.883,0,0,1-.1-2.885l.507-24.666,4.023.758-1.767,24.136a1.893,1.893,0,0,1-2.659,2.657Z" transform="translate(-755.281 -433.088)" fill="#9f616a"/>
    <path id="Path_10552" data-name="Path 10552" d="M923.516,711.023h3.133l.894-7.309h-4.027Z" transform="translate(-692.858 -527.954)" fill="#9f616a"/>
    <path id="Path_10553" data-name="Path 10553" d="M991.317,804.937h6.17a3.932,3.932,0,0,1,3.932,3.932V809h-10.1Z" transform="translate(-761.459 -622.891)" fill="#2f2e41"/>
    <path id="Path_10554" data-name="Path 10554" d="M845.238,696.678h3.133l.894-12.085h-4.027Z" transform="translate(-634.131 -513.609)" fill="#9f616a"/>
    <path id="Path_10555" data-name="Path 10555" d="M913.04,804.937h6.17a3.932,3.932,0,0,1,3.932,3.932V809h-10.1Z" transform="translate(-702.732 -622.891)" fill="#2f2e41"/>
    <circle id="Ellipse_780" data-name="Ellipse 780" cx="5.126" cy="5.126" r="5.126" transform="translate(218.602 94.805)" fill="#9f616a"/>
    <path id="Path_10556" data-name="Path 10556" d="M983.732,523.522s2.278.19,2.468,1.329a35.212,35.212,0,0,1,0,4.556s1.519,4.556,0,5.7-5.505,1.329-5.505,1.329Z" transform="translate(-753.489 -411.763)" fill="#e4e4e4"/>
    <path id="Path_10557" data-name="Path 10557" d="M909.052,626.9l-2.088,3.417s.759,15,.949,15.377a1.142,1.142,0,0,1,.19.759v2.088l.57,18.225s-1.519.759.38,1.329,4.366.759,4.746-1.139.4-17.714.38-18.225l.19-.759,3.037-11.2,7.024,15.567,4.177,17.466s6.321.73,5.182-1.738-3.853-20.853-3.853-20.853a19.7,19.7,0,0,1-.57-2.278c0-.38-.19-.57-.19-.949s-.19-1.519-.19-1.519l-1.329-11.96Z" transform="translate(-698.174 -489.317)" fill="#2e2e2e"/>
    <path id="Path_10558" data-name="Path 10558" d="M900.88,510.584s-2.278-.19-2.848,1.709-5.316,9.112-4.366,9.872a43.476,43.476,0,0,0,8.353,3.227C902.209,525.2,900.88,510.584,900.88,510.584Z" transform="translate(-688.103 -402.052)" fill="#e4e4e4"/>
    <path id="Path_10559" data-name="Path 10559" d="M955.148,451.076a4.28,4.28,0,0,0-1.136-2.154,3.536,3.536,0,0,0-2.266-.892,7.036,7.036,0,0,0-6.345-.36,1.16,1.16,0,0,0-.505-.515l-.183,1.581-.706-.532q-.018.468-.035.936l-.647-.557a2.7,2.7,0,0,0,1.913,2.438,8.443,8.443,0,0,0,3.284.255,1.9,1.9,0,0,1,1.535.387,2.418,2.418,0,0,1,.322,1.642c.013.8.839.41,1.253,1.1a1.563,1.563,0,0,1,.321.79,1.848,1.848,0,0,1-.278.733c-.3.63-.911,2.589-.622,3.226l1.607-.9S956.189,454.952,955.148,451.076Z" transform="translate(-725.451 -354.413)"/>
    <path id="Path_10560" data-name="Path 10560" d="M930.308,516.65s3.8-9.682,3.607-10.441-4.927-3.875-4.927-3.875l-.524-.066a.867.867,0,0,0,.052-.208l.082-.743a.875.875,0,0,0-.774-.965l-6.019-.66a.875.875,0,0,0-.965.774l-.071.643c-.318-.079-.332-.11-.332-.11s-5.316.843-6.644,1.223-.19,14.808-.19,14.808-.949,13.289-1.519,13.669,0,.19-.57,1.709c-.075.2.974-.918,1.424-.664,2.962,1.67,14.974,5.575,17.94,5.41.948-9.9-.949-13.1-.949-13.1Z" transform="translate(-701.584 -393.88)" fill="#e4e4e4"/>
  </g>
</svg>
