<svg xmlns="http://www.w3.org/2000/svg" width="264.246" height="195.382" viewBox="0 0 264.246 195.382">
  <g id="Group_11630" data-name="Group 11630" transform="translate(6.533 0.011)">
    <path id="Path_10574" data-name="Path 10574" d="M921.6,404.139s-3.02-4.821-2.188-10.043,5.2-8.868,5.2-8.868,3.02,4.821,2.188,10.043S921.6,404.139,921.6,404.139Z" transform="translate(-708.347 -304.859)" fill="#b2b2b2"/>
    <path id="Path_10575" data-name="Path 10575" d="M799.122,446.471c-1.543-5.058.783-10.249.783-10.249s4.828,3.009,6.371,8.066a14.552,14.552,0,0,1,.177,7.07,42.27,42.27,0,0,1,10.452-13.412c-.091-.117-.139-.184-.139-.184s.288-.151.791-.364c.069-.058.137-.117.207-.174,7.283-5.97,16.92-10.362,29.439-13.418l-.083-.134-.031-.017.011-.014c-.054-.09-.082-.141-.082-.141s.1-.039.285-.1c.83-.962,4.035-4.37,8.482-5.225,5.193-1,10.109,1.864,10.109,1.864a17.577,17.577,0,0,1-5.884,4.567,17.607,17.607,0,0,1,5.032,5.365s-5.3,2.072-10.275.286a15.917,15.917,0,0,1-7.282-6.016c-12,2.913-21.344,7.051-28.489,12.625a15.071,15.071,0,0,1,7.948-.54c5.146,1.216,8.458,5.841,8.458,5.841s-5.032,2.654-10.178,1.438a16,16,0,0,1-8.013-5.279c-8.726,7.525-13.85,17.809-13.756,27.712a39.2,39.2,0,0,0,1.033,8.172c.147.661.306,1.325.465,1.991.875,3.66,1.78,7.445.844,11.1a13.1,13.1,0,0,1-4.057,6.456l-.321-.364a12.611,12.611,0,0,0,3.908-6.212c.906-3.543.015-7.268-.846-10.871-.16-.669-.319-1.335-.467-2a39.677,39.677,0,0,1-1.045-8.273,32.013,32.013,0,0,1,2.2-11.722C804.057,453.541,800.422,450.734,799.122,446.471Z" transform="translate(-619.926 -328.843)" fill="#b2b2b2"/>
    <circle id="Ellipse_791" data-name="Ellipse 791" cx="4.615" cy="4.615" r="4.615" transform="matrix(0.532, -0.847, 0.847, 0.532, 244.989, 98.172)" fill="#b2b2b2"/>
    <path id="Path_10576" data-name="Path 10576" d="M257.353,404.139s3.02-4.821,2.188-10.043-5.2-8.868-5.2-8.868-3.02,4.821-2.188,10.043S257.353,404.139,257.353,404.139Z" transform="translate(-219.431 -304.859)" fill="#b2b2b2"/>
    <path id="Path_10577" data-name="Path 10577" d="M216.376,446.471c1.543-5.058-.783-10.249-.783-10.249s-4.828,3.009-6.371,8.066a14.552,14.552,0,0,0-.177,7.07,42.268,42.268,0,0,0-10.452-13.412c.091-.117.139-.184.139-.184s-.288-.151-.791-.364c-.069-.058-.137-.117-.207-.174-7.283-5.97-16.92-10.362-29.439-13.418l.083-.134.031-.017-.011-.014c.054-.09.082-.141.082-.141s-.1-.039-.285-.1c-.83-.962-4.035-4.37-8.482-5.225-5.193-1-10.109,1.864-10.109,1.864a17.575,17.575,0,0,0,5.884,4.567,17.607,17.607,0,0,0-5.032,5.365s5.3,2.072,10.275.286a15.917,15.917,0,0,0,7.282-6.016c12,2.913,21.344,7.051,28.489,12.625a15.072,15.072,0,0,0-7.948-.54c-5.146,1.216-8.458,5.841-8.458,5.841s5.032,2.654,10.178,1.438a16,16,0,0,0,8.013-5.279c8.726,7.525,13.85,17.809,13.757,27.712a39.2,39.2,0,0,1-1.033,8.172c-.147.661-.306,1.325-.465,1.991-.875,3.66-1.78,7.445-.844,11.1a13.1,13.1,0,0,0,4.057,6.456l.321-.364a12.61,12.61,0,0,1-3.908-6.212c-.906-3.543-.015-7.268.846-10.871.16-.669.319-1.335.467-2a39.673,39.673,0,0,0,1.045-8.273,32.012,32.012,0,0,0-2.2-11.722C211.442,453.541,215.076,450.734,216.376,446.471Z" transform="translate(-144.396 -328.843)" fill="#b2b2b2"/>
    <circle id="Ellipse_792" data-name="Ellipse 792" cx="4.615" cy="4.615" r="4.615" transform="matrix(0.847, -0.532, 0.532, 0.847, -6.533, 95.262)" fill="#b2b2b2"/>
    <ellipse id="Ellipse_793" data-name="Ellipse 793" cx="17.64" cy="2.94" rx="17.64" ry="2.94" transform="translate(60.239 161.694)" fill="#3f3d56"/>
    <ellipse id="Ellipse_794" data-name="Ellipse 794" cx="17.64" cy="2.94" rx="17.64" ry="2.94" transform="translate(156.191 161.694)" fill="#3f3d56"/>
    <path id="Path_10578" data-name="Path 10578" d="M489.673,796.44c0,1.312-19.589,2.422-46.64,2.8-6.447.091-13.316.139-20.447.139-7.532,0-14.772-.053-21.532-.155-26.49-.393-45.555-1.491-45.555-2.785,0-1.224,17.015-2.269,41.227-2.716,7.957-.144,16.694-.224,25.859-.224,8.761,0,17.13.075,24.8.206C472.163,794.139,489.673,795.2,489.673,796.44Z" transform="translate(-295.261 -604.01)" fill="#3f3d56"/>
    <path id="Path_10579" data-name="Path 10579" d="M321.407,527.348l-4.09,4.545,9.772,9.09,2.727-8.863Z" transform="translate(-237.293 -386.409)" fill="#a0616a"/>
    <path id="Path_10580" data-name="Path 10580" d="M635.214,527.348l4.09,4.545-9.772,9.09-2.727-8.863Z" transform="translate(-464.063 -386.409)" fill="#a0616a"/>
    <path id="Path_10581" data-name="Path 10581" d="M466.946,310.649l-5.227,12.5a33.07,33.07,0,0,0-6.363,22.271l-18.18,42.269,9.545,7.954,7.5-18.18a22.686,22.686,0,0,0,6.136-14.09l19.316-31.815L500.579,361.1s4.318,13.862,8.636,16.362l9.544,18.18,10.226-7.045-22.952-43.178s-3.182-18.634-9.545-24.089l-1.363-9.544-15.908-7.727Z" transform="translate(-355.107 -245.384)" fill="#2f2e41"/>
    <path id="Path_10582" data-name="Path 10582" d="M381.825,637.043a13.207,13.207,0,0,1-.9,2.379c-2.273,4.545-14.317-2.5-14.317-2.5s-17.953-6.818-15.226-14.317c.057-.155.116-.3.182-.448,3.011-6.772,13.908-.234,13.908-.234l7.726-2.727,4.545,5.454,4.545,4.661A20.259,20.259,0,0,1,381.825,637.043Z" transform="translate(-292.034 -476.213)" fill="#2f2e41"/>
    <path id="Path_10583" data-name="Path 10583" d="M381.825,645.079a13.2,13.2,0,0,1-.9,2.379c-2.273,4.545-14.317-2.5-14.317-2.5s-17.953-6.817-15.226-14.317c.057-.155.116-.3.182-.448a11.133,11.133,0,0,1,11.862,5.9C367.465,643.127,377.492,644.72,381.825,645.079Z" transform="translate(-292.034 -484.248)" fill="#3f3d56"/>
    <path id="Path_10584" data-name="Path 10584" d="M747.484,637.043a13.2,13.2,0,0,0,.9,2.379c2.272,4.545,14.317-2.5,14.317-2.5s17.953-6.818,15.226-14.317c-.057-.155-.116-.3-.182-.448-3.011-6.772-13.908-.234-13.908-.234l-7.727-2.727-4.545,5.454-4.545,4.661a20.26,20.26,0,0,0,.459,7.731Z" transform="translate(-582.009 -476.213)" fill="#2f2e41"/>
    <path id="Path_10585" data-name="Path 10585" d="M749.233,645.079a13.2,13.2,0,0,0,.9,2.379c2.272,4.545,14.317-2.5,14.317-2.5s17.953-6.817,15.226-14.317c-.057-.155-.116-.3-.182-.448a11.133,11.133,0,0,0-11.862,5.9C763.593,643.127,753.567,644.72,749.233,645.079Z" transform="translate(-583.758 -484.248)" fill="#3f3d56"/>
    <circle id="Ellipse_795" data-name="Ellipse 795" cx="8.863" cy="8.863" r="8.863" transform="translate(110.135 5.385)" fill="#a0616a"/>
    <path id="Path_10586" data-name="Path 10586" d="M456.757,63.408l1.818,9.317,6.817,2.954,5.681-7.726-5.454-9.09Z" transform="translate(-339.464 -43.139)" fill="#a0616a"/>
    <path id="Path_10587" data-name="Path 10587" d="M534.079,96.587a.678.678,0,0,0,.934,0,1.983,1.983,0,0,0,.5-.9,1.943,1.943,0,0,1,.507-.895c.757-.631,1.972.133,2.872-.268.665-.3.906-1.1,1.385-1.651a4.527,4.527,0,0,1,3.125-1.115,3.683,3.683,0,0,1,2.807.509,5.222,5.222,0,0,1,1.1,2.332c.293.819.97,1.681,1.831,1.56a1.477,1.477,0,0,0,1.054-.823,3.309,3.309,0,0,0,.3-1.347,9.036,9.036,0,0,0-10.147-9.432c-.591.074-1.174.207-1.755.339a6.541,6.541,0,0,0-2.2.788c-.592.392-1.048.971-1.663,1.324-.966.554-2.258.518-3.038,1.312a3.8,3.8,0,0,0-.77,1.49L529.9,92.8a2.468,2.468,0,0,0-.172,1.557c.224.661.97,1.036,1.2,1.7.346,1-.636,2.128-.214,3.094a1.884,1.884,0,0,0,1.411.939,1.989,1.989,0,0,0,1.282-.081,1.72,1.72,0,0,0,.835-1.592,5.057,5.057,0,0,0-.5-1.818l.79.618" transform="translate(-422.868 -84.5)" fill="#2f2e41"/>
    <path id="Path_10588" data-name="Path 10588" d="M546.861,171.421l16.816,8.635-6.817,36.36s-17.271-4.318-17.5-4.091-14.771,4.091-14.771,4.091l-4.09-35,13.911-8.046S538.68,182.1,546.861,171.421Z" transform="translate(-416.16 -148.197)" fill="#a91e1c"/>
    <path id="Path_10589" data-name="Path 10589" d="M557.9,476.533c-4.362,0-8.414-3.124-11.411-8.8-2.9-5.483-4.492-12.753-4.492-20.47s1.6-14.987,4.492-20.47c3-5.673,7.049-8.8,11.411-8.8s8.414,3.124,11.411,8.8c2.9,5.483,4.492,12.753,4.492,20.47s-1.6,14.987-4.492,20.47C566.317,473.409,562.264,476.533,557.9,476.533Zm0-56.663c-3.634,0-7.1,2.77-9.757,7.8-2.757,5.219-4.276,12.178-4.276,19.6s1.518,14.377,4.276,19.6c2.657,5.03,6.122,7.8,9.757,7.8s7.1-2.77,9.756-7.8c2.757-5.219,4.276-12.178,4.276-19.6s-1.518-14.377-4.276-19.6C565,422.641,561.537,419.871,557.9,419.871Z" transform="translate(-431.914 -328.872)" fill="#3f3d56"/>
    <path id="Path_10590" data-name="Path 10590" d="M513.7,269.2l1.136,17.5,9.544,17.5s5,14.544,10.226,10.908-4.772-13.635-4.772-13.635l-7.954-17.5,1.136-12.5Z" transform="translate(-411.176 -219.842)" fill="#a0616a"/>
    <path id="Path_10591" data-name="Path 10591" d="M612.847,266.707l-.682,13.18-9.317,17.726s-8.408,13.18-2.727,13.408,9.317-11.59,9.317-11.59l10-16.589L621.71,265.8Z" transform="translate(-473.056 -217.35)" fill="#a0616a"/>
    <path id="Path_10592" data-name="Path 10592" d="M405.816,121.781l-5,.682-2.727,17.725,11.59,2.045Z" transform="translate(-296.477 -89.24)" fill="#a91e1c"/>
    <path id="Path_10593" data-name="Path 10593" d="M540.77,114.979l4.772,1.136,2.273,18.862-11.135.909Z" transform="translate(-398.025 -84.256)" fill="#a91e1c"/>
    <path id="Path_10594" data-name="Path 10594" d="M552.832,655.159a29.613,29.613,0,0,1-8.686,20.976c-6.447.091-13.316.139-20.447.139-7.532,0-14.772-.053-21.532-.155a29.668,29.668,0,1,1,50.665-20.96Z" transform="translate(-396.373 -480.904)" fill="#a91e1c"/>
    <circle id="Ellipse_796" data-name="Ellipse 796" cx="4.009" cy="4.009" r="4.009" transform="translate(180.781 80.442)" fill="#b2b2b2"/>
    <circle id="Ellipse_797" data-name="Ellipse 797" cx="7.216" cy="7.216" r="7.216" transform="translate(55.696 58.792)" fill="#b2b2b2"/>
    <g id="Group_11631" data-name="Group 11631" transform="translate(105.264 153.949)">
      <rect id="Rectangle_2873" data-name="Rectangle 2873" width="41.251" height="41.251" transform="translate(0 0)" fill="none"/>
      <path id="Path_10596" data-name="Path 10596" d="M63.552,48.714c-.965-1.662-2.116-4.815-2.116-10.4V37.159A13.105,13.105,0,0,0,48.554,24h-.1A13,13,0,0,0,35.476,37.013v1.3c0,5.585-1.151,8.738-2.117,10.4A2.6,2.6,0,0,0,35.6,52.627H41.95a6.506,6.506,0,0,0,13.012,0h6.346a2.6,2.6,0,0,0,2.244-3.913Zm-15.1,7.817a3.908,3.908,0,0,1-3.9-3.9h7.807A3.908,3.908,0,0,1,48.456,56.531Z" transform="translate(-27.83 -20.291)" fill="#fff"/>
    </g>
  </g>
</svg>
